<?xml version="1.0" standalone="no"?>
<!DOCTYPE svg PUBLIC "-//W3C//DTD SVG 20010904//EN"
 "http://www.w3.org/TR/2001/REC-SVG-20010904/DTD/svg10.dtd">
<svg version="1.0" xmlns="http://www.w3.org/2000/svg"
 width="195.000000pt" height="195.000000pt" viewBox="0 0 195.000000 195.000000"
 preserveAspectRatio="xMidYMid meet">
<metadata>
Created by potrace 1.16, written by Peter Selinger 2001-2019
</metadata>
<g transform="translate(0.000000,195.000000) scale(0.100000,-0.100000)"
fill="#000000" stroke="none">
<path d="M1000 1939 c-30 -12 -156 -134 -175 -169 -7 -14 -16 -43 -19 -66 -6
-36 -32 -65 -264 -297 -229 -228 -261 -256 -297 -263 -59 -10 -83 -25 -157
-101 -76 -78 -88 -102 -88 -182 0 -47 5 -66 29 -102 51 -75 410 -425 461 -448
87 -40 157 -22 247 62 76 72 101 110 109 170 5 35 15 54 45 83 l39 38 323
-321 c177 -177 335 -327 350 -333 37 -13 133 -13 160 1 32 16 156 139 173 171
16 32 19 124 4 165 -6 15 -156 173 -333 350 l-321 323 38 39 c29 30 48 40 83
45 60 8 98 33 170 110 90 96 104 175 48 271 -29 50 -409 426 -452 449 -36 18
-133 21 -173 5z m308 -342 c111 -112 202 -209 202 -215 0 -15 -86 -109 -113
-123 -13 -8 -25 -6 -44 6 l-26 17 -329 -330 -330 -329 17 -26 c12 -19 14 -31
6 -44 -14 -27 -108 -113 -123 -113 -6 0 -103 91 -215 202 -137 137 -203 209
-203 224 0 13 23 43 60 78 61 58 61 58 87 41 l26 -17 329 330 330 329 -17 26
c-17 26 -17 26 41 87 35 37 65 60 78 60 15 0 87 -66 224 -203z m492 -1330 c0
-24 -77 -106 -108 -114 -21 -5 -59 29 -338 308 l-314 314 67 67 68 68 312
-312 c176 -176 313 -321 313 -331z"/>
</g>
</svg>
