<?xml version="1.0" standalone="no"?>
<!DOCTYPE svg PUBLIC "-//W3C//DTD SVG 20010904//EN"
 "http://www.w3.org/TR/2001/REC-SVG-20010904/DTD/svg10.dtd">
<svg version="1.0" xmlns="http://www.w3.org/2000/svg"
 width="204.000000pt" height="198.000000pt" viewBox="0 0 204.000000 198.000000"
 preserveAspectRatio="xMidYMid meet">
<metadata>
Created by potrace 1.16, written by Peter Selinger 2001-2019
</metadata>
<g transform="translate(0.000000,198.000000) scale(0.100000,-0.100000)"
fill="#000000" stroke="none">
<path d="M1329 1957 c-190 -65 -324 -213 -364 -402 -8 -38 -15 -118 -15 -177
0 -95 2 -110 20 -128 31 -31 93 -27 119 6 18 23 21 41 21 123 0 115 19 198 61
263 86 133 247 207 392 178 166 -32 290 -158 317 -322 32 -206 -132 -415 -342
-434 -35 -4 -282 -1 -549 5 -543 13 -573 11 -699 -51 -125 -61 -239 -202 -276
-343 -21 -76 -18 -221 6 -296 54 -175 192 -311 369 -363 79 -23 232 -21 312 4
189 58 334 216 374 405 8 39 15 118 15 176 0 92 -3 108 -20 127 -31 33 -92 30
-119 -4 -18 -23 -21 -41 -21 -123 0 -115 -19 -198 -61 -263 -86 -133 -247
-207 -391 -178 -167 32 -291 158 -318 322 -32 206 132 415 342 434 35 4 282 1
549 -5 543 -13 573 -11 699 51 125 61 239 202 276 343 21 76 18 221 -6 296
-54 175 -192 311 -369 363 -84 24 -239 21 -322 -7z"/>
</g>
</svg>
