<?xml version="1.0" standalone="no"?>
<!DOCTYPE svg PUBLIC "-//W3C//DTD SVG 20010904//EN"
 "http://www.w3.org/TR/2001/REC-SVG-20010904/DTD/svg10.dtd">
<svg version="1.0" xmlns="http://www.w3.org/2000/svg"
 width="258.000000pt" height="192.000000pt" viewBox="0 0 258.000000 192.000000"
 preserveAspectRatio="xMidYMid meet">
<metadata>
Created by potrace 1.16, written by Peter Selinger 2001-2019
</metadata>
<g transform="translate(0.000000,192.000000) scale(0.100000,-0.100000)"
fill="#000000" stroke="none">
<path d="M665 1905 c-194 -54 -355 -207 -420 -400 -32 -95 -36 -252 -10 -357
l7 -26 -107 -4 c-119 -4 -135 -13 -135 -73 0 -57 20 -65 172 -65 l135 0 51
-62 c28 -35 244 -255 479 -491 400 -399 431 -427 463 -427 33 0 65 30 501 468
256 257 476 482 488 500 l22 32 118 0 c137 0 155 9 149 76 -4 51 -31 64 -130
64 l-77 0 7 33 c4 17 7 88 6 157 0 117 -2 130 -32 205 -74 184 -227 320 -417
370 -77 20 -233 20 -310 0 -94 -25 -184 -75 -255 -141 l-65 -62 -60 57 c-69
65 -173 122 -261 145 -76 20 -249 20 -319 1z m241 -126 c99 -18 178 -63 273
-154 47 -45 96 -85 108 -89 32 -10 58 6 149 95 93 90 169 131 275 149 227 38
468 -121 529 -349 17 -66 14 -187 -7 -256 l-19 -60 -259 -2 -260 -3 -49 110
c-55 125 -66 137 -103 124 -23 -8 -36 -38 -124 -284 -53 -151 -100 -268 -103
-260 -3 8 -57 157 -120 330 l-113 315 -38 0 -37 0 -82 -175 -82 -175 -217 -3
-218 -2 -19 42 c-106 242 30 543 285 627 94 31 145 36 231 20z m254 -834 c61
-171 118 -320 126 -332 16 -26 46 -30 66 -9 8 7 56 132 107 277 52 145 97 267
100 272 4 4 18 -16 31 -45 43 -95 19 -88 309 -88 l256 0 -427 -427 -428 -428
-410 410 c-225 225 -410 413 -410 417 0 5 96 8 214 8 l213 0 63 135 c35 74 67
132 71 128 4 -5 58 -147 119 -318z"/>
</g>
</svg>
